# xmcd
#
# Track frame offsets: 
#        150
#        15926
#        34958
#        65802
#        78719
#        101448
#        116683
#        131101
#        160033
#        177053
#        198311
#        219708
#        232786
#        258691
#        270229
#        288812
#
# Disc length: 4135 seconds
#
# Revision: 0
# Processed by: cddbd v1.5.2PL0 Copyright (c) Steve Scherf et al.
# Submitted via: ExactAudioCopy v1.0b3
#
DISCID=db102510
DTITLE=Wyland Blues Planet Band - Blues Planet III
DYEAR=2013
DGENRE=Blues
TTITLE0=Blues World
TTITLE1=Time to Get Back Home
TTITLE2=Down On the Water 2
TTITLE3=Time to Go Now
TTITLE4=Sirens Blue Song
TTITLE5=You Sure Look Fine
TTITLE6=The World Is Blue
TTITLE7=Big Fine Woman
TTITLE8=Bad, Bad Man
TTITLE9=Another Day Passing
TTITLE10=Blues Planet Jelly
TTITLE11=Body and Mind
TTITLE12=Stingray Stomp
TTITLE13=Start to Have Some Fun
TTITLE14=Live in the Moment
TTITLE15=Blues Planet Boogie
EXTD=
EXTT0=
EXTT1=
EXTT2=
EXTT3=
EXTT4=
EXTT5=
EXTT6=
EXTT7=
EXTT8=
EXTT9=
EXTT10=
EXTT11=
EXTT12=
EXTT13=
EXTT14=
EXTT15=
PLAYORDER=
